<svg width="302" height="308" viewBox="0 0 302 308" fill="none" xmlns="http://www.w3.org/2000/svg">
<path d="M79.7739 79.5054C120.824 38.399 159.756 36.596 182.421 40.6011C192.759 42.4279 194.969 54.6655 187.45 62.1952L63.2118 186.603C54.8763 194.95 41.7814 190.884 41.3847 178.93C40.5363 153.368 45.8961 113.429 79.7739 79.5054Z" fill="#1666D7"/>
<path d="M223.945 227.299C264.469 185.654 266.765 145.646 263.187 122.279C261.554 111.619 249.686 109.17 242.264 116.798L119.6 242.852C111.372 251.307 115.151 264.833 126.769 265.406C151.608 266.629 190.502 261.666 223.945 227.299Z" fill="#2EA05A"/>
<path d="M85.6545 242.462C90.7227 246.072 96.9969 244.682 101.369 240.202C120.023 221.086 170.816 169.113 193.33 146.867C212.079 128.342 189.195 117.546 172.226 112.466C162.86 109.663 153.031 113.048 146.077 120.111L61.2066 206.312C59.1945 208.356 57.8595 211.052 58.8662 213.773C60.1579 217.265 63.4852 222.909 71.8692 230.863C77.596 236.297 82.1691 239.98 85.6545 242.462Z" fill="url(#paint0_linear_1_18)"/>
<rect width="39.1973" height="8.80529" rx="4.40264" transform="matrix(0.704709 -0.709496 0.686647 0.726991 168.303 98.5157)" fill="#1666D7"/>
<rect width="12.4355" height="8.80579" rx="4.40289" transform="matrix(0.704709 -0.709496 0.686647 0.726991 201.601 66.6356)" fill="#0F8C8E"/>
<rect width="50.5568" height="9.7027" rx="4.85135" transform="matrix(0.704709 -0.709496 0.686647 0.726991 205.764 114.311)" fill="#2EA05A"/>
<defs>
<linearGradient id="paint0_linear_1_18" x1="187.449" y1="115.468" x2="69.1456" y2="228.193" gradientUnits="userSpaceOnUse">
<stop stop-color="#0F8C8E"/>
<stop offset="1" stop-color="#0F8C8E"/>
</linearGradient>
</defs>
</svg>
